<svg xmlns="http://www.w3.org/2000/svg" viewBox="0 0 1920 1024" fill="none">
  <circle cx="862.4" cy="15.6" r="2.98" fill="#c8a84b" opacity="0.6"/>
  <circle cx="860.5" cy="16.0" r="1.54" fill="#c8a84b" opacity="0.45"/>
  <circle cx="861.5" cy="18.0" r="1.18" fill="#c8a84b" opacity="0.45"/>
  <circle cx="733.5" cy="32.0" r="1.18" fill="#c8a84b" opacity="0.45"/>
  <circle cx="733.7" cy="34.4" r="3.40" fill="#c8a84b" opacity="0.6"/>
  <circle cx="932.0" cy="35.5" r="1.72" fill="#c8a84b" opacity="0.45"/>
  <circle cx="857.9" cy="76.2" r="1.90" fill="#c8a84b" opacity="0.45"/>
  <circle cx="737.0" cy="164.5" r="1.72" fill="#c8a84b" opacity="0.45"/>
  <circle cx="1262.8" cy="201.0" r="2.62" fill="#c8a84b" opacity="0.6"/>
  <circle cx="1260.5" cy="202.0" r="1.18" fill="#c8a84b" opacity="0.45"/>
  <circle cx="1260.5" cy="203.0" r="1.18" fill="#c8a84b" opacity="0.45"/>
  <circle cx="1262.9" cy="203.4" r="1.90" fill="#c8a84b" opacity="0.45"/>
  <circle cx="856.5" cy="217.0" r="1.18" fill="#c8a84b" opacity="0.45"/>
  <circle cx="855.5" cy="218.0" r="1.18" fill="#c8a84b" opacity="0.45"/>
  <circle cx="856.8" cy="218.3" r="1.54" fill="#c8a84b" opacity="0.45"/>
  <circle cx="794.0" cy="231.0" r="3.16" fill="#c8a84b" opacity="0.6"/>
  <circle cx="794.5" cy="233.0" r="1.54" fill="#c8a84b" opacity="0.45"/>
  <circle cx="665.0" cy="248.5" r="1.72" fill="#c8a84b" opacity="0.45"/>
  <circle cx="889.1" cy="306.3" r="2.62" fill="#c8a84b" opacity="0.6"/>
  <circle cx="889.0" cy="308.3" r="2.08" fill="#c8a84b" opacity="0.6"/>
  <circle cx="735.0" cy="367.0" r="1.36" fill="#c8a84b" opacity="0.45"/>
  <circle cx="736.5" cy="367.0" r="1.18" fill="#c8a84b" opacity="0.45"/>
  <circle cx="735.5" cy="368.0" r="1.18" fill="#c8a84b" opacity="0.45"/>
  <circle cx="909.6" cy="370.4" r="2.98" fill="#c8a84b" opacity="0.6"/>
  <circle cx="911.5" cy="370.5" r="1.72" fill="#c8a84b" opacity="0.45"/>
  <circle cx="789.0" cy="433.5" r="1.72" fill="#c8a84b" opacity="0.45"/>
  <circle cx="672.0" cy="446.0" r="2.08" fill="#c8a84b" opacity="0.6"/>
  <circle cx="669.0" cy="507.0" r="1.36" fill="#c8a84b" opacity="0.45"/>
  <circle cx="669.0" cy="508.0" r="1.36" fill="#c8a84b" opacity="0.45"/>
  <circle cx="890.5" cy="509.5" r="1.36" fill="#c8a84b" opacity="0.45"/>
  <circle cx="891.9" cy="509.8" r="1.90" fill="#c8a84b" opacity="0.45"/>
  <circle cx="1118.0" cy="528.5" r="1.72" fill="#c8a84b" opacity="0.45"/>
  <circle cx="1014.0" cy="607.0" r="1.36" fill="#c8a84b" opacity="0.45"/>
  <circle cx="1013.5" cy="608.5" r="2.08" fill="#c8a84b" opacity="0.6"/>
  <circle cx="667.5" cy="649.3" r="2.26" fill="#c8a84b" opacity="0.6"/>
  <circle cx="890.0" cy="651.5" r="1.72" fill="#c8a84b" opacity="0.45"/>
  <circle cx="893.0" cy="824.7" r="3.40" fill="#c8a84b" opacity="0.6"/>
  <circle cx="1114.6" cy="826.1" r="2.44" fill="#c8a84b" opacity="0.6"/>
  <circle cx="1116.5" cy="826.5" r="1.36" fill="#c8a84b" opacity="0.45"/>
  <circle cx="1114.5" cy="828.0" r="1.54" fill="#c8a84b" opacity="0.45"/>
  <circle cx="1116.5" cy="828.0" r="1.18" fill="#c8a84b" opacity="0.45"/>
  <circle cx="857.3" cy="454.3" r="2.04" fill="#c8a84b" opacity="0.42"/>
  <circle cx="710.7" cy="699.0" r="1.59" fill="#c8a84b" opacity="0.42"/>
  <circle cx="702.3" cy="680.9" r="1.06" fill="#c8a84b" opacity="0.42"/>
  <circle cx="921.3" cy="402.8" r="1.15" fill="#c8a84b" opacity="0.42"/>
  <circle cx="916.0" cy="883.9" r="1.20" fill="#c8a84b" opacity="0.42"/>
  <circle cx="798.6" cy="757.2" r="2.52" fill="#c8a84b" opacity="0.42"/>
  <circle cx="1005.0" cy="610.5" r="2.56" fill="#c8a84b" opacity="0.42"/>
  <circle cx="695.7" cy="904.0" r="1.46" fill="#c8a84b" opacity="0.42"/>
  <circle cx="752.6" cy="433.3" r="1.49" fill="#c8a84b" opacity="0.42"/>
  <circle cx="1144.3" cy="473.3" r="1.93" fill="#c8a84b" opacity="0.42"/>
  <circle cx="1041.0" cy="595.1" r="1.88" fill="#c8a84b" opacity="0.42"/>
  <circle cx="705.1" cy="396.3" r="1.33" fill="#c8a84b" opacity="0.42"/>
  <circle cx="1065.2" cy="630.2" r="1.50" fill="#c8a84b" opacity="0.42"/>
  <circle cx="1009.9" cy="646.4" r="1.48" fill="#c8a84b" opacity="0.42"/>
  <circle cx="1131.6" cy="802.7" r="1.39" fill="#c8a84b" opacity="0.42"/>
  <circle cx="1003.4" cy="692.2" r="2.40" fill="#c8a84b" opacity="0.42"/>
  <circle cx="1093.8" cy="541.4" r="2.57" fill="#c8a84b" opacity="0.42"/>
  <circle cx="737.3" cy="624.2" r="2.21" fill="#c8a84b" opacity="0.42"/>
  <circle cx="757.1" cy="669.2" r="1.06" fill="#c8a84b" opacity="0.42"/>
  <circle cx="1058.1" cy="844.4" r="1.92" fill="#c8a84b" opacity="0.42"/>
  <circle cx="1178.9" cy="557.8" r="2.11" fill="#c8a84b" opacity="0.42"/>
  <circle cx="1015.0" cy="727.0" r="1.73" fill="#c8a84b" opacity="0.42"/>
  <circle cx="1158.2" cy="958.8" r="1.76" fill="#c8a84b" opacity="0.42"/>
  <circle cx="1055.7" cy="397.0" r="2.12" fill="#c8a84b" opacity="0.42"/>
  <circle cx="1045.8" cy="989.6" r="2.32" fill="#c8a84b" opacity="0.42"/>
  <circle cx="834.4" cy="603.6" r="2.07" fill="#c8a84b" opacity="0.42"/>
  <circle cx="681.7" cy="651.9" r="1.27" fill="#c8a84b" opacity="0.42"/>
  <circle cx="736.8" cy="395.9" r="2.23" fill="#c8a84b" opacity="0.42"/>
  <circle cx="743.9" cy="515.8" r="1.63" fill="#c8a84b" opacity="0.42"/>
  <circle cx="1176.5" cy="409.6" r="1.72" fill="#c8a84b" opacity="0.42"/>
  <circle cx="988.8" cy="919.9" r="2.31" fill="#c8a84b" opacity="0.42"/>
  <circle cx="1172.2" cy="535.4" r="1.66" fill="#c8a84b" opacity="0.42"/>
  <circle cx="877.7" cy="920.4" r="2.53" fill="#c8a84b" opacity="0.42"/>
  <circle cx="756.5" cy="470.4" r="1.37" fill="#c8a84b" opacity="0.42"/>
  <circle cx="804.5" cy="666.6" r="1.94" fill="#c8a84b" opacity="0.42"/>
  <circle cx="821.7" cy="361.0" r="1.67" fill="#c8a84b" opacity="0.42"/>
  <circle cx="883.8" cy="718.4" r="2.52" fill="#c8a84b" opacity="0.42"/>
  <circle cx="1071.1" cy="686.0" r="1.99" fill="#c8a84b" opacity="0.42"/>
  <circle cx="1062.7" cy="392.7" r="2.44" fill="#c8a84b" opacity="0.42"/>
  <circle cx="1123.2" cy="914.2" r="2.28" fill="#c8a84b" opacity="0.42"/>
  <circle cx="897.3" cy="612.0" r="1.17" fill="#c8a84b" opacity="0.42"/>
  <circle cx="1038.3" cy="398.0" r="1.11" fill="#c8a84b" opacity="0.42"/>
  <circle cx="790.2" cy="461.6" r="1.54" fill="#c8a84b" opacity="0.42"/>
  <circle cx="699.2" cy="358.5" r="1.24" fill="#c8a84b" opacity="0.42"/>
  <circle cx="727.7" cy="589.5" r="1.04" fill="#c8a84b" opacity="0.42"/>
  <circle cx="1219.3" cy="44.6" r="1.50" fill="#c8a84b" opacity="0.45"/>
  <circle cx="289.5" cy="120.9" r="2.33" fill="#c8a84b" opacity="0.6"/>
  <circle cx="191.7" cy="435.2" r="1.05" fill="#c8a84b" opacity="0.45"/>
  <circle cx="462.7" cy="612.4" r="2.01" fill="#c8a84b" opacity="0.6"/>
  <circle cx="1238.8" cy="556.2" r="1.40" fill="#c8a84b" opacity="0.6"/>
  <circle cx="547.4" cy="875.4" r="2.37" fill="#c8a84b" opacity="0.45"/>
  <circle cx="1328.5" cy="354.8" r="1.28" fill="#c8a84b" opacity="0.42"/>
  <circle cx="220.1" cy="393.8" r="1.65" fill="#c8a84b" opacity="0.42"/>
  <circle cx="1152.9" cy="814.2" r="2.31" fill="#c8a84b" opacity="0.6"/>
  <circle cx="262.2" cy="927.5" r="1.14" fill="#c8a84b" opacity="0.42"/>
  <circle cx="1572.7" cy="628.6" r="2.55" fill="#c8a84b" opacity="0.6"/>
  <circle cx="387.7" cy="88.4" r="2.19" fill="#c8a84b" opacity="0.42"/>
  <circle cx="1862.5" cy="861.6" r="2.56" fill="#c8a84b" opacity="0.42"/>
  <circle cx="547.0" cy="645.5" r="1.66" fill="#c8a84b" opacity="0.42"/>
  <circle cx="690.8" cy="679.5" r="2.26" fill="#c8a84b" opacity="0.6"/>
  <circle cx="1235.3" cy="619.4" r="1.31" fill="#c8a84b" opacity="0.6"/>
  <circle cx="485.3" cy="474.9" r="1.49" fill="#c8a84b" opacity="0.6"/>
  <circle cx="1310.0" cy="236.1" r="1.58" fill="#c8a84b" opacity="0.45"/>
  <circle cx="456.0" cy="51.6" r="1.57" fill="#c8a84b" opacity="0.42"/>
  <circle cx="153.1" cy="918.5" r="2.02" fill="#c8a84b" opacity="0.6"/>
  <circle cx="615.3" cy="665.0" r="1.71" fill="#c8a84b" opacity="0.6"/>
  <circle cx="883.5" cy="280.6" r="1.44" fill="#c8a84b" opacity="0.6"/>
  <circle cx="1032.5" cy="755.1" r="1.77" fill="#c8a84b" opacity="0.6"/>
  <circle cx="772.9" cy="235.8" r="2.80" fill="#c8a84b" opacity="0.6"/>
  <circle cx="947.9" cy="763.7" r="2.55" fill="#c8a84b" opacity="0.45"/>
  <circle cx="1197.0" cy="799.4" r="1.76" fill="#c8a84b" opacity="0.45"/>
  <circle cx="745.7" cy="606.4" r="1.84" fill="#c8a84b" opacity="0.42"/>
  <circle cx="1836.2" cy="867.0" r="1.02" fill="#c8a84b" opacity="0.6"/>
  <circle cx="243.1" cy="890.6" r="2.35" fill="#c8a84b" opacity="0.6"/>
  <circle cx="662.7" cy="308.8" r="1.28" fill="#c8a84b" opacity="0.45"/>
  <circle cx="1804.1" cy="881.8" r="1.47" fill="#c8a84b" opacity="0.6"/>
  <circle cx="1447.2" cy="519.6" r="1.19" fill="#c8a84b" opacity="0.6"/>
  <circle cx="585.1" cy="648.7" r="2.10" fill="#c8a84b" opacity="0.45"/>
  <circle cx="725.5" cy="179.0" r="2.72" fill="#c8a84b" opacity="0.6"/>
  <circle cx="1738.4" cy="609.4" r="1.88" fill="#c8a84b" opacity="0.45"/>
  <circle cx="1758.1" cy="884.7" r="2.50" fill="#c8a84b" opacity="0.42"/>
  <circle cx="475.4" cy="257.0" r="2.02" fill="#c8a84b" opacity="0.45"/>
  <circle cx="189.3" cy="498.2" r="1.12" fill="#c8a84b" opacity="0.6"/>
  <circle cx="1454.5" cy="146.3" r="1.86" fill="#c8a84b" opacity="0.6"/>
  <circle cx="337.1" cy="539.2" r="2.09" fill="#c8a84b" opacity="0.45"/>
  <circle cx="1757.8" cy="763.2" r="2.24" fill="#c8a84b" opacity="0.6"/>
  <circle cx="609.8" cy="999.2" r="2.17" fill="#c8a84b" opacity="0.42"/>
  <circle cx="1703.3" cy="464.3" r="1.45" fill="#c8a84b" opacity="0.45"/>
  <circle cx="658.8" cy="598.9" r="1.41" fill="#c8a84b" opacity="0.45"/>
  <circle cx="43.4" cy="716.5" r="1.11" fill="#c8a84b" opacity="0.45"/>
  <circle cx="1714.1" cy="865.9" r="1.13" fill="#c8a84b" opacity="0.45"/>
  <circle cx="548.0" cy="497.6" r="1.97" fill="#c8a84b" opacity="0.6"/>
  <circle cx="1770.1" cy="581.9" r="1.85" fill="#c8a84b" opacity="0.42"/>
  <circle cx="1531.9" cy="207.4" r="1.17" fill="#c8a84b" opacity="0.42"/>
  <circle cx="689.0" cy="424.5" r="2.55" fill="#c8a84b" opacity="0.45"/>
  <circle cx="1282.5" cy="988.4" r="1.18" fill="#c8a84b" opacity="0.42"/>
  <circle cx="1384.5" cy="807.8" r="1.20" fill="#c8a84b" opacity="0.45"/>
  <circle cx="383.8" cy="461.4" r="1.76" fill="#c8a84b" opacity="0.42"/>
  <circle cx="890.5" cy="880.5" r="1.14" fill="#c8a84b" opacity="0.6"/>
  <circle cx="212.1" cy="661.7" r="1.97" fill="#c8a84b" opacity="0.45"/>
  <circle cx="1832.3" cy="931.5" r="2.53" fill="#c8a84b" opacity="0.45"/>
  <circle cx="785.9" cy="493.7" r="2.56" fill="#c8a84b" opacity="0.45"/>
  <circle cx="336.2" cy="22.1" r="1.70" fill="#c8a84b" opacity="0.42"/>
  <circle cx="560.6" cy="705.4" r="2.31" fill="#c8a84b" opacity="0.6"/>
  <circle cx="1261.1" cy="498.9" r="1.34" fill="#c8a84b" opacity="0.45"/>
  <circle cx="1831.8" cy="589.9" r="1.98" fill="#c8a84b" opacity="0.6"/>
  <circle cx="613.3" cy="69.3" r="1.86" fill="#c8a84b" opacity="0.6"/>
  <circle cx="322.8" cy="965.4" r="1.14" fill="#c8a84b" opacity="0.45"/>
  <circle cx="157.4" cy="86.9" r="2.55" fill="#c8a84b" opacity="0.42"/>
  <circle cx="253.0" cy="896.0" r="1.44" fill="#c8a84b" opacity="0.6"/>
  <circle cx="103.9" cy="100.7" r="2.18" fill="#c8a84b" opacity="0.6"/>
  <circle cx="1002.4" cy="939.8" r="1.37" fill="#c8a84b" opacity="0.6"/>
  <circle cx="614.4" cy="281.4" r="1.24" fill="#c8a84b" opacity="0.6"/>
  <circle cx="588.0" cy="331.1" r="2.35" fill="#c8a84b" opacity="0.45"/>
  <circle cx="47.3" cy="631.2" r="2.01" fill="#c8a84b" opacity="0.45"/>
  <circle cx="166.3" cy="229.7" r="1.48" fill="#c8a84b" opacity="0.42"/>
  <circle cx="1668.4" cy="885.2" r="1.67" fill="#c8a84b" opacity="0.45"/>
  <circle cx="845.0" cy="554.5" r="1.54" fill="#c8a84b" opacity="0.6"/>
  <circle cx="1013.8" cy="677.2" r="2.00" fill="#c8a84b" opacity="0.6"/>
  <circle cx="222.7" cy="884.1" r="1.48" fill="#c8a84b" opacity="0.45"/>
  <circle cx="1410.9" cy="173.0" r="1.51" fill="#c8a84b" opacity="0.45"/>
  <circle cx="1364.8" cy="220.3" r="2.14" fill="#c8a84b" opacity="0.42"/>
  <circle cx="970.1" cy="267.1" r="2.63" fill="#c8a84b" opacity="0.45"/>
  <circle cx="201.7" cy="436.8" r="1.50" fill="#c8a84b" opacity="0.45"/>
  <circle cx="650.4" cy="148.7" r="2.76" fill="#c8a84b" opacity="0.45"/>
  <circle cx="1408.7" cy="562.9" r="1.77" fill="#c8a84b" opacity="0.45"/>
  <circle cx="238.1" cy="949.9" r="2.24" fill="#c8a84b" opacity="0.45"/>
  <circle cx="1044.8" cy="841.2" r="2.05" fill="#c8a84b" opacity="0.45"/>
  <circle cx="829.4" cy="61.2" r="1.66" fill="#c8a84b" opacity="0.45"/>
  <circle cx="1702.0" cy="226.7" r="1.45" fill="#c8a84b" opacity="0.45"/>
  <circle cx="687.8" cy="570.9" r="2.57" fill="#c8a84b" opacity="0.6"/>
  <circle cx="1424.0" cy="931.0" r="1.43" fill="#c8a84b" opacity="0.45"/>
  <circle cx="1845.7" cy="817.8" r="2.59" fill="#c8a84b" opacity="0.45"/>
  <circle cx="363.6" cy="929.7" r="2.41" fill="#c8a84b" opacity="0.42"/>
  <circle cx="1522.2" cy="870.2" r="2.46" fill="#c8a84b" opacity="0.42"/>
  <circle cx="326.1" cy="710.1" r="1.69" fill="#c8a84b" opacity="0.45"/>
  <circle cx="1627.0" cy="238.9" r="2.47" fill="#c8a84b" opacity="0.42"/>
  <circle cx="680.4" cy="827.4" r="2.57" fill="#c8a84b" opacity="0.45"/>
  <circle cx="74.0" cy="210.0" r="1.59" fill="#c8a84b" opacity="0.45"/>
  <circle cx="1828.4" cy="294.7" r="2.15" fill="#c8a84b" opacity="0.42"/>
  <circle cx="1293.9" cy="850.2" r="1.60" fill="#c8a84b" opacity="0.45"/>
  <circle cx="244.5" cy="974.9" r="1.32" fill="#c8a84b" opacity="0.42"/>
  <circle cx="101.2" cy="607.0" r="1.62" fill="#c8a84b" opacity="0.42"/>
  <circle cx="841.7" cy="988.5" r="1.21" fill="#c8a84b" opacity="0.6"/>
  <circle cx="383.5" cy="63.7" r="1.78" fill="#c8a84b" opacity="0.6"/>
  <circle cx="1751.6" cy="549.8" r="2.29" fill="#c8a84b" opacity="0.6"/>
  <circle cx="1400.9" cy="213.9" r="1.78" fill="#c8a84b" opacity="0.6"/>
  <circle cx="1742.6" cy="633.2" r="2.19" fill="#c8a84b" opacity="0.45"/>
  <circle cx="1368.7" cy="315.5" r="1.56" fill="#c8a84b" opacity="0.42"/>
  <circle cx="636.7" cy="706.1" r="2.00" fill="#c8a84b" opacity="0.45"/>
  <circle cx="812.0" cy="945.3" r="2.22" fill="#c8a84b" opacity="0.45"/>
  <circle cx="1174.9" cy="316.1" r="1.99" fill="#c8a84b" opacity="0.45"/>
  <circle cx="595.2" cy="226.8" r="2.41" fill="#c8a84b" opacity="0.6"/>
  <circle cx="1247.8" cy="477.5" r="1.80" fill="#c8a84b" opacity="0.45"/>
  <circle cx="980.8" cy="801.0" r="2.73" fill="#c8a84b" opacity="0.6"/>
  <circle cx="345.6" cy="103.4" r="1.93" fill="#c8a84b" opacity="0.6"/>
  <circle cx="1181.8" cy="111.9" r="2.71" fill="#c8a84b" opacity="0.45"/>
  <circle cx="1281.4" cy="241.0" r="1.36" fill="#c8a84b" opacity="0.45"/>
  <circle cx="116.0" cy="988.2" r="2.10" fill="#c8a84b" opacity="0.45"/>
  <circle cx="877.1" cy="892.0" r="2.04" fill="#c8a84b" opacity="0.6"/>
  <circle cx="1325.2" cy="506.5" r="1.44" fill="#c8a84b" opacity="0.6"/>
  <circle cx="1309.0" cy="898.4" r="2.55" fill="#c8a84b" opacity="0.45"/>
  <circle cx="1477.9" cy="235.3" r="2.45" fill="#c8a84b" opacity="0.6"/>
  <circle cx="993.4" cy="69.4" r="1.45" fill="#c8a84b" opacity="0.45"/>
  <circle cx="879.0" cy="808.6" r="2.20" fill="#c8a84b" opacity="0.6"/>
  <circle cx="265.8" cy="246.6" r="1.21" fill="#c8a84b" opacity="0.42"/>
  <circle cx="72.7" cy="943.4" r="1.78" fill="#c8a84b" opacity="0.42"/>
  <circle cx="276.6" cy="799.9" r="2.26" fill="#c8a84b" opacity="0.42"/>
  <circle cx="520.4" cy="169.8" r="2.06" fill="#c8a84b" opacity="0.42"/>
  <circle cx="537.2" cy="481.5" r="1.64" fill="#c8a84b" opacity="0.42"/>
  <circle cx="183.9" cy="376.7" r="2.49" fill="#c8a84b" opacity="0.42"/>
  <circle cx="69.2" cy="615.8" r="2.56" fill="#c8a84b" opacity="0.42"/>
  <circle cx="237.6" cy="755.5" r="1.71" fill="#c8a84b" opacity="0.42"/>
  <circle cx="582.8" cy="56.5" r="1.04" fill="#c8a84b" opacity="0.42"/>
  <circle cx="308.3" cy="941.7" r="2.01" fill="#c8a84b" opacity="0.42"/>
  <circle cx="1667.2" cy="344.4" r="1.84" fill="#c8a84b" opacity="0.42"/>
  <circle cx="142.2" cy="650.2" r="1.71" fill="#c8a84b" opacity="0.42"/>
  <circle cx="351.9" cy="368.1" r="2.11" fill="#c8a84b" opacity="0.42"/>
  <circle cx="581.2" cy="618.3" r="1.65" fill="#c8a84b" opacity="0.42"/>
  <circle cx="78.7" cy="995.3" r="1.66" fill="#c8a84b" opacity="0.42"/>
  <circle cx="1827.2" cy="778.2" r="2.28" fill="#c8a84b" opacity="0.42"/>
  <circle cx="1362.8" cy="203.0" r="1.12" fill="#c8a84b" opacity="0.42"/>
  <circle cx="195.1" cy="352.0" r="1.60" fill="#c8a84b" opacity="0.42"/>
  <circle cx="1785.8" cy="427.4" r="1.59" fill="#c8a84b" opacity="0.42"/>
  <circle cx="1826.7" cy="730.1" r="1.64" fill="#c8a84b" opacity="0.42"/>
  <circle cx="290.2" cy="662.9" r="1.50" fill="#c8a84b" opacity="0.42"/>
  <circle cx="552.0" cy="771.8" r="2.14" fill="#c8a84b" opacity="0.42"/>
  <circle cx="1524.9" cy="759.5" r="1.13" fill="#c8a84b" opacity="0.42"/>
  <circle cx="1878.0" cy="88.6" r="1.47" fill="#c8a84b" opacity="0.42"/>
  <circle cx="1486.6" cy="544.7" r="2.49" fill="#c8a84b" opacity="0.42"/>
  <circle cx="1827.9" cy="972.6" r="2.32" fill="#c8a84b" opacity="0.42"/>
  <circle cx="1522.1" cy="211.4" r="1.54" fill="#c8a84b" opacity="0.42"/>
  <circle cx="1294.1" cy="703.2" r="2.54" fill="#c8a84b" opacity="0.42"/>
  <circle cx="137.6" cy="796.9" r="1.42" fill="#c8a84b" opacity="0.42"/>
  <circle cx="273.6" cy="421.7" r="2.38" fill="#c8a84b" opacity="0.42"/>
  <circle cx="419.5" cy="21.3" r="1.50" fill="#c8a84b" opacity="0.42"/>
  <circle cx="429.1" cy="522.9" r="2.29" fill="#c8a84b" opacity="0.42"/>
  <circle cx="1452.1" cy="480.5" r="1.85" fill="#c8a84b" opacity="0.42"/>
  <circle cx="1675.9" cy="217.1" r="1.03" fill="#c8a84b" opacity="0.42"/>
  <circle cx="84.0" cy="965.8" r="1.67" fill="#c8a84b" opacity="0.42"/>
  <circle cx="1630.6" cy="210.9" r="1.16" fill="#c8a84b" opacity="0.42"/>
  <circle cx="545.6" cy="280.6" r="1.53" fill="#c8a84b" opacity="0.42"/>
  <circle cx="1840.2" cy="431.5" r="2.53" fill="#c8a84b" opacity="0.42"/>
  <circle cx="1443.7" cy="475.8" r="2.35" fill="#c8a84b" opacity="0.42"/>
  <circle cx="1403.3" cy="583.6" r="2.00" fill="#c8a84b" opacity="0.42"/>
  <circle cx="577.4" cy="543.2" r="2.60" fill="#c8a84b" opacity="0.42"/>
  <circle cx="1361.4" cy="91.0" r="2.05" fill="#c8a84b" opacity="0.42"/>
  <circle cx="1705.7" cy="643.4" r="1.93" fill="#c8a84b" opacity="0.42"/>
  <circle cx="271.9" cy="410.9" r="1.08" fill="#c8a84b" opacity="0.42"/>
  <circle cx="1629.4" cy="176.0" r="1.70" fill="#c8a84b" opacity="0.42"/>
  <circle cx="443.2" cy="135.3" r="1.27" fill="#c8a84b" opacity="0.42"/>
  <circle cx="187.6" cy="783.2" r="1.28" fill="#c8a84b" opacity="0.42"/>
  <circle cx="235.2" cy="751.5" r="1.18" fill="#c8a84b" opacity="0.42"/>
  <circle cx="96.5" cy="52.6" r="1.82" fill="#c8a84b" opacity="0.42"/>
  <circle cx="250.8" cy="625.1" r="2.22" fill="#c8a84b" opacity="0.42"/>
  <circle cx="391.8" cy="898.8" r="2.30" fill="#c8a84b" opacity="0.42"/>
  <circle cx="285.4" cy="164.2" r="2.03" fill="#c8a84b" opacity="0.42"/>
  <circle cx="337.2" cy="390.8" r="2.09" fill="#c8a84b" opacity="0.42"/>
  <circle cx="79.0" cy="577.7" r="2.17" fill="#c8a84b" opacity="0.42"/>
  <circle cx="386.6" cy="881.4" r="2.34" fill="#c8a84b" opacity="0.42"/>
  <circle cx="1518.5" cy="599.9" r="1.93" fill="#c8a84b" opacity="0.42"/>
  <circle cx="32.4" cy="948.5" r="2.41" fill="#c8a84b" opacity="0.42"/>
  <circle cx="512.7" cy="504.6" r="2.28" fill="#c8a84b" opacity="0.42"/>
  <circle cx="1391.3" cy="853.0" r="2.06" fill="#c8a84b" opacity="0.42"/>
  <circle cx="1881.0" cy="820.9" r="1.98" fill="#c8a84b" opacity="0.42"/>
</svg>
